<svg height='300px' width='300px'  fill="#cde5f9" xmlns:dc="http://purl.org/dc/elements/1.1/" xmlns:cc="http://creativecommons.org/ns#" xmlns:rdf="http://www.w3.org/1999/02/22-rdf-syntax-ns#" xmlns:svg="http://www.w3.org/2000/svg" xmlns="http://www.w3.org/2000/svg" xmlns:sodipodi="http://sodipodi.sourceforge.net/DTD/sodipodi-0.dtd" xmlns:inkscape="http://www.inkscape.org/namespaces/inkscape" viewBox="0 0 8.4666665 8.466667" version="1.1" x="0px" y="0px"><g transform="translate(0,-288.53332)"><path style="" d="m 6.0717164,293.32137 a 0.2507917,0.2507917 0 1 0 -0.5015799,0 0.2507917,0.2507917 0 1 0 0.5015799,0 z" fill="#cde5f9" stroke="none"></path><path style="" d="m 6.0717164,292.21194 a 0.2507917,0.2507917 0 1 0 -0.5015799,0 0.2507917,0.2507917 0 1 0 0.5015799,0 z" fill="#cde5f9" stroke="none"></path><path style="" d="m 4.4304745,289.3615 a 4.4033951,4.4033951 0 0 0 -1.6851579,0.25476 3.3472745,3.3472745 0 0 0 0,6.30091 4.4033951,4.4033951 0 0 0 2.9760335,0 3.3472745,3.3472745 0 0 0 0,-6.30091 4.4033951,4.4033951 0 0 0 -1.2908756,-0.25476 z m 1.1332633,2.17558 a 1.6480313,1.6480313 0 0 1 0.6444192,0.11679 1.1978858,1.1978858 0 0 1 0,2.22518 1.6480313,1.6480313 0 0 1 -1.2216342,0 1.1978858,1.1978858 0 0 1 -0.5121275,-0.39067 0.28697804,0.28697804 0 0 0 -0.4226983,-0.0388 0.96132677,0.96132677 0 0 1 -1.3528941,-0.0543 1.3281774,1.3281774 0 0 0 -1.5363296,-0.29817 0.13229168,0.13229168 0 0 1 -0.1369483,-0.22428 5.0273141,5.0273141 0 0 0 0.5689599,-0.51263 1.440724,1.440724 0 0 1 1.5311703,-0.36173 1.778193,1.778193 0 0 0 1.6195411,-0.21446 1.1978858,1.1978858 0 0 1 0.2413265,-0.13022 1.6480313,1.6480313 0 0 1 0.577215,-0.11679 z" fill="#cde5f9" stroke="none"></path></g></svg>